STARTFONT 2.1
COMMENT
COMMENT Shinonome 16dot font for JISX 0201, 1976
COMMENT
COMMENT The original is designed by
COMMENT   Yasuyuki Furukawa <Furukawa.Yasuyuki@fujixerox.co.jp>, 2000.
COMMENT   (Public Domain)
COMMENT
COMMENT Modified and Maintained by /efont/.
COMMENT
COMMENT (c) /efont/ -- Efont Open Laboratory 2001
COMMENT http://openlab.ring.gr.jp/efont/
COMMENT
FONT -Shinonome-Gothic-Medium-I-Normal--16-150-75-75-C-80-JISX0201.1976-0
SIZE 16 75 75
FONTBOUNDINGBOX 13 16 -2 -2
STARTPROPERTIES 20
FONTNAME_REGISTRY ""
FOUNDRY "Shinonome"
FAMILY_NAME "Gothic"
WEIGHT_NAME "Medium"
SLANT "I"
SETWIDTH_NAME "Normal"
ADD_STYLE_NAME ""
PIXEL_SIZE 16
POINT_SIZE 150
RESOLUTION_X 75
RESOLUTION_Y 75
SPACING "C"
AVERAGE_WIDTH 80
CHARSET_REGISTRY "JISX0201.1976"
CHARSET_ENCODING "0"
DEFAULT_CHAR 32
FONT_DESCENT 2
FONT_ASCENT 14
COPYRIGHT "Public Domain"
_XMBDFED_INFO "Edited with xmbdfed 4.4."
ENDPROPERTIES
CHARS 221
STARTCHAR 01
ENCODING 1
SWIDTH 480 0
DWIDTH 8 0
BBX 13 16 -2 -2
BITMAP
0080
0080
01C0
0380
07C0
07C0
1FC0
1FC0
0F80
1F00
0E00
0E00
0800
0800
0000
0000
ENDCHAR
STARTCHAR 02
ENCODING 2
SWIDTH 480 0
DWIDTH 8 0
BBX 13 16 -2 -2
BITMAP
02A8
0550
06A8
0AA0
0550
0EA0
0AA0
1540
1AA0
2A80
1540
3A80
2A80
5500
0000
0000
ENDCHAR
STARTCHAR 03
ENCODING 3
SWIDTH 480 0
DWIDTH 8 0
BBX 13 16 -2 -2
BITMAP
0000
0440
0440
0880
0F80
0880
1100
1100
0000
0F80
0200
0200
0400
0400
0400
0800
ENDCHAR
STARTCHAR 04
ENCODING 4
SWIDTH 480 0
DWIDTH 8 0
BBX 13 16 -2 -2
BITMAP
0000
07C0
0400
0800
0F00
0800
1000
1000
07C0
0800
0800
0F00
1000
1000
1000
0000
ENDCHAR
STARTCHAR 05
ENCODING 5
SWIDTH 480 0
DWIDTH 8 0
BBX 13 16 -2 -2
BITMAP
0000
0380
0440
0800
0800
0800
0900
0600
0000
0F00
0880
0900
1E00
1400
1200
2200
ENDCHAR
STARTCHAR 06
ENCODING 6
SWIDTH 480 0
DWIDTH 8 0
BBX 13 16 -2 -2
BITMAP
0000
0400
0400
0800
0800
0800
1000
1F00
0000
0F80
0800
0800
1E00
1000
1000
2000
ENDCHAR
STARTCHAR 07
ENCODING 7
SWIDTH 480 0
DWIDTH 8 0
BBX 13 16 -2 -2
BITMAP
0000
0000
0180
0240
0440
0480
0300
0000
0000
0000
0000
0000
0000
0000
0000
0000
ENDCHAR
STARTCHAR    8
ENCODING 8
SWIDTH 480 0
DWIDTH 8 0
BBX 13 16 -2 -2
BITMAP
0000
0000
0080
0100
0100
0100
1FC0
0200
0200
0400
0400
0000
7F00
0000
0000
0000
ENDCHAR
STARTCHAR    9
ENCODING 9
SWIDTH 480 0
DWIDTH 8 0
BBX 13 16 -2 -2
BITMAP
0000
0420
0620
0A40
0A40
0A40
1280
1180
1080
0800
0800
0800
1000
1000
1000
3E00
ENDCHAR
STARTCHAR    a
ENCODING 10
SWIDTH 480 0
DWIDTH 8 0
BBX 13 16 -2 -2
BITMAP
0000
0000
0440
0880
0880
0900
0A00
0400
0000
0F80
0200
0200
0400
0400
0400
0000
ENDCHAR
STARTCHAR    b
ENCODING 11
SWIDTH 480 0
DWIDTH 8 0
BBX 13 16 -2 -2
BITMAP
0080
0080
0080
0100
0100
0100
0200
0200
1E00
0000
0000
0000
0000
0000
0000
0000
ENDCHAR
STARTCHAR    c
ENCODING 12
SWIDTH 480 0
DWIDTH 8 0
BBX 13 16 -2 -2
BITMAP
0000
0000
0000
0000
0000
0000
0000
0000
1E00
0400
0400
0400
0800
0800
0800
1000
ENDCHAR
STARTCHAR    d
ENCODING 13
SWIDTH 480 0
DWIDTH 8 0
BBX 13 16 -2 -2
BITMAP
0000
0000
0000
0000
0000
0000
0000
0000
03E0
0400
0400
0400
0800
0800
0800
1000
ENDCHAR
STARTCHAR    e
ENCODING 14
SWIDTH 480 0
DWIDTH 8 0
BBX 13 16 -2 -2
BITMAP
0080
0080
0080
0100
0100
0100
0200
0200
03E0
0000
0000
0000
0000
0000
0000
0000
ENDCHAR
STARTCHAR    f
ENCODING 15
SWIDTH 480 0
DWIDTH 8 0
BBX 13 16 -2 -2
BITMAP
0080
0080
0080
0100
0100
0100
0200
0200
1FE0
0400
0400
0400
0800
0800
0800
1000
ENDCHAR
STARTCHAR   10
ENCODING 16
SWIDTH 480 0
DWIDTH 8 0
BBX 13 16 -2 -2
BITMAP
0000
0000
07F8
0000
0000
0000
0000
0000
0000
0000
0000
0000
0000
0000
0000
0000
ENDCHAR
STARTCHAR   11
ENCODING 17
SWIDTH 480 0
DWIDTH 8 0
BBX 13 16 -2 -2
BITMAP
0000
0000
0000
0000
0000
0FF0
0000
0000
0000
0000
0000
0000
0000
0000
0000
0000
ENDCHAR
STARTCHAR   12
ENCODING 18
SWIDTH 480 0
DWIDTH 8 0
BBX 13 16 -2 -2
BITMAP
0000
0000
0000
0000
0000
0000
0000
0000
1FE0
0000
0000
0000
0000
0000
0000
0000
ENDCHAR
STARTCHAR   13
ENCODING 19
SWIDTH 480 0
DWIDTH 8 0
BBX 13 16 -2 -2
BITMAP
0000
0000
0000
0000
0000
0000
0000
0000
0000
0000
0000
3FC0
0000
0000
0000
0000
ENDCHAR
STARTCHAR   14
ENCODING 20
SWIDTH 480 0
DWIDTH 8 0
BBX 13 16 -2 -2
BITMAP
0000
0000
0000
0000
0000
0000
0000
0000
0000
0000
0000
0000
0000
0000
7F80
0000
ENDCHAR
STARTCHAR   15
ENCODING 21
SWIDTH 480 0
DWIDTH 8 0
BBX 13 16 -2 -2
BITMAP
0080
0080
0080
0100
0100
0100
0200
0200
03E0
0400
0400
0400
0800
0800
0800
1000
ENDCHAR
STARTCHAR   16
ENCODING 22
SWIDTH 480 0
DWIDTH 8 0
BBX 13 16 -2 -2
BITMAP
0080
0080
0080
0100
0100
0100
0200
0200
1E00
0400
0400
0400
0800
0800
0800
1000
ENDCHAR
STARTCHAR   17
ENCODING 23
SWIDTH 480 0
DWIDTH 8 0
BBX 13 16 -2 -2
BITMAP
0080
0080
0080
0100
0100
0100
0200
0200
1FE0
0000
0000
0000
0000
0000
0000
0000
ENDCHAR
STARTCHAR   18
ENCODING 24
SWIDTH 480 0
DWIDTH 8 0
BBX 13 16 -2 -2
BITMAP
0000
0000
0000
0000
0000
0000
0000
0000
1FE0
0400
0400
0400
0800
0800
0800
1000
ENDCHAR
STARTCHAR   19
ENCODING 25
SWIDTH 480 0
DWIDTH 8 0
BBX 13 16 -2 -2
BITMAP
0080
0080
0080
0100
0100
0100
0200
0200
0200
0400
0400
0400
0800
0800
0800
1000
ENDCHAR
STARTCHAR   1a
ENCODING 26
SWIDTH 480 0
DWIDTH 8 0
BBX 13 16 -2 -2
BITMAP
0000
0000
0030
00C0
0300
0C00
0200
0180
0040
0000
3F80
0000
7F00
0000
0000
0000
ENDCHAR
STARTCHAR   1b
ENCODING 27
SWIDTH 480 0
DWIDTH 8 0
BBX 13 16 -2 -2
BITMAP
0000
0000
0000
0800
0600
0100
00C0
0300
0C00
1000
3F80
0000
7F00
0000
0000
0000
ENDCHAR
STARTCHAR   1c
ENCODING 28
SWIDTH 480 0
DWIDTH 8 0
BBX 13 16 -2 -2
BITMAP
0000
0000
0000
0000
0000
0000
0000
1FC0
0480
0900
0900
1100
2200
4200
0000
0000
ENDCHAR
STARTCHAR   1d
ENCODING 29
SWIDTH 480 0
DWIDTH 8 0
BBX 13 16 -2 -2
BITMAP
0000
0000
0000
0000
0020
00C0
0100
1FC0
0200
3F80
0800
3000
4000
0000
0000
0000
ENDCHAR
STARTCHAR   1e
ENCODING 30
SWIDTH 480 0
DWIDTH 8 0
BBX 13 16 -2 -2
BITMAP
0000
0000
0000
0000
00C0
0120
0200
0200
0200
1F00
0400
0400
1E00
2900
1000
0000
ENDCHAR
STARTCHAR   1f
ENCODING 31
SWIDTH 480 0
DWIDTH 8 0
BBX 13 16 -2 -2
BITMAP
0000
0000
0000
0000
0000
0000
0000
0000
0200
0000
0000
0000
0000
0000
0000
0000
ENDCHAR
STARTCHAR 20
ENCODING 32
SWIDTH 480 0
DWIDTH 8 0
BBX 13 16 -2 -2
BITMAP
0000
0000
0000
0000
0000
0000
0000
0000
0000
0000
0000
0000
0000
0000
0000
0000
ENDCHAR
STARTCHAR 21
ENCODING 33
SWIDTH 480 0
DWIDTH 8 0
BBX 13 16 -2 -2
BITMAP
0000
00C0
00C0
0180
0180
0100
0200
0200
0200
0400
0400
0000
0000
0800
0800
0000
ENDCHAR
STARTCHAR 22
ENCODING 34
SWIDTH 480 0
DWIDTH 8 0
BBX 13 16 -2 -2
BITMAP
0360
0120
0260
0480
0000
0000
0000
0000
0000
0000
0000
0000
0000
0000
0000
0000
ENDCHAR
STARTCHAR 23
ENCODING 35
SWIDTH 480 0
DWIDTH 8 0
BBX 13 16 -2 -2
BITMAP
0000
0090
0090
0120
07F0
0240
0480
0480
0480
0900
3F80
1200
2400
2400
2400
0000
ENDCHAR
STARTCHAR 24
ENCODING 36
SWIDTH 480 0
DWIDTH 8 0
BBX 13 16 -2 -2
BITMAP
0080
01C0
02A0
0520
0920
0900
0A00
0700
0280
0480
2480
2500
2A00
1C00
0800
1000
ENDCHAR
STARTCHAR 25
ENCODING 37
SWIDTH 480 0
DWIDTH 8 0
BBX 13 16 -2 -2
BITMAP
0008
0208
0510
0920
0940
0B80
0480
0100
0200
0580
0E40
1240
1480
2480
4300
8000
ENDCHAR
STARTCHAR 26
ENCODING 38
SWIDTH 480 0
DWIDTH 8 0
BBX 13 16 -2 -2
BITMAP
0000
0180
0240
0440
0440
0280
0300
0600
0A80
1280
2100
2300
2500
1880
0000
0000
ENDCHAR
STARTCHAR 27
ENCODING 39
SWIDTH 480 0
DWIDTH 8 0
BBX 13 16 -2 -2
BITMAP
0300
0100
0200
0400
0000
0000
0000
0000
0000
0000
0000
0000
0000
0000
0000
0000
ENDCHAR
STARTCHAR 28
ENCODING 40
SWIDTH 480 0
DWIDTH 8 0
BBX 13 16 -2 -2
BITMAP
0000
0010
0020
0040
0080
0100
0200
0200
0200
0400
0400
0400
0400
0400
0200
0200
ENDCHAR
STARTCHAR 29
ENCODING 41
SWIDTH 480 0
DWIDTH 8 0
BBX 13 16 -2 -2
BITMAP
0000
0200
0100
0100
0100
0100
0100
0100
0100
0200
0200
0400
0400
0800
3000
4000
ENDCHAR
STARTCHAR 2a
ENCODING 42
SWIDTH 480 0
DWIDTH 8 0
BBX 13 16 -2 -2
BITMAP
0000
0000
0000
0000
0100
0960
0A80
0700
1A80
2480
0400
0000
0000
0000
0000
0000
ENDCHAR
STARTCHAR 2b
ENCODING 43
SWIDTH 480 0
DWIDTH 8 0
BBX 13 16 -2 -2
BITMAP
0000
0000
0000
0100
0100
0100
0200
1FC0
0200
0400
0400
0400
0000
0000
0000
0000
ENDCHAR
STARTCHAR 2c
ENCODING 44
SWIDTH 480 0
DWIDTH 8 0
BBX 13 16 -2 -2
BITMAP
0000
0000
0000
0000
0000
0000
0000
0000
0000
0000
0000
0000
3000
1000
2000
4000
ENDCHAR
STARTCHAR 2d
ENCODING 45
SWIDTH 480 0
DWIDTH 8 0
BBX 13 16 -2 -2
BITMAP
0000
0000
0000
0000
0000
0000
0000
1FC0
0000
0000
0000
0000
0000
0000
0000
0000
ENDCHAR
STARTCHAR 2e
ENCODING 46
SWIDTH 480 0
DWIDTH 8 0
BBX 13 16 -2 -2
BITMAP
0000
0000
0000
0000
0000
0000
0000
0000
0000
0000
0000
0000
3000
3000
0000
0000
ENDCHAR
STARTCHAR 2f
ENCODING 47
SWIDTH 480 0
DWIDTH 8 0
BBX 13 16 -2 -2
BITMAP
0000
0010
0020
0020
0040
0080
0100
0200
0400
0400
0800
1000
2000
4000
4000
0000
ENDCHAR
STARTCHAR 30
ENCODING 48
SWIDTH 480 0
DWIDTH 8 0
BBX 13 16 -2 -2
BITMAP
0000
0080
0140
0240
0420
0420
0840
0840
0840
1080
1080
1100
1200
0C00
0000
0000
ENDCHAR
STARTCHAR 31
ENCODING 49
SWIDTH 480 0
DWIDTH 8 0
BBX 13 16 -2 -2
BITMAP
0000
0080
0080
0300
0500
0100
0200
0200
0200
0400
0400
0400
0800
0800
0000
0000
ENDCHAR
STARTCHAR 32
ENCODING 50
SWIDTH 480 0
DWIDTH 8 0
BBX 13 16 -2 -2
BITMAP
0000
00C0
0120
0220
0420
0040
0080
0100
0200
0400
0800
1000
2000
3F00
0000
0000
ENDCHAR
STARTCHAR 33
ENCODING 51
SWIDTH 480 0
DWIDTH 8 0
BBX 13 16 -2 -2
BITMAP
0000
01C0
0220
0420
0820
0040
0080
0700
0080
0080
2080
2100
2200
1C00
0000
0000
ENDCHAR
STARTCHAR 34
ENCODING 52
SWIDTH 480 0
DWIDTH 8 0
BBX 13 16 -2 -2
BITMAP
0000
0040
00C0
0180
0280
0480
0500
0900
1100
3F80
0200
0200
0400
0400
0000
0000
ENDCHAR
STARTCHAR 35
ENCODING 53
SWIDTH 480 0
DWIDTH 8 0
BBX 13 16 -2 -2
BITMAP
0000
03E0
0200
0400
0400
0F00
1880
1040
0040
0080
2080
2100
2200
1C00
0000
0000
ENDCHAR
STARTCHAR 36
ENCODING 54
SWIDTH 480 0
DWIDTH 8 0
BBX 13 16 -2 -2
BITMAP
0000
01C0
0220
0400
0800
0800
1700
1880
1080
2080
2080
2100
2200
1C00
0000
0000
ENDCHAR
STARTCHAR 37
ENCODING 55
SWIDTH 480 0
DWIDTH 8 0
BBX 13 16 -2 -2
BITMAP
0000
07F0
0010
0020
0040
0080
0100
0100
0200
0200
0400
0400
0800
0800
0800
0000
ENDCHAR
STARTCHAR 38
ENCODING 56
SWIDTH 480 0
DWIDTH 8 0
BBX 13 16 -2 -2
BITMAP
0000
01C0
0220
0420
0820
0840
0880
0700
0880
1080
2080
2100
2200
1C00
0000
0000
ENDCHAR
STARTCHAR 39
ENCODING 57
SWIDTH 480 0
DWIDTH 8 0
BBX 13 16 -2 -2
BITMAP
0000
01C0
0220
0420
0820
0820
0840
08C0
0740
0080
0080
2100
2200
1C00
0000
0000
ENDCHAR
STARTCHAR 3a
ENCODING 58
SWIDTH 480 0
DWIDTH 8 0
BBX 13 16 -2 -2
BITMAP
0000
0000
0000
0000
0180
0180
0000
0000
0000
0000
0000
0600
0C00
0000
0000
0000
ENDCHAR
STARTCHAR 3b
ENCODING 59
SWIDTH 480 0
DWIDTH 8 0
BBX 13 16 -2 -2
BITMAP
0000
0000
0000
0000
0180
0180
0000
0000
0000
0000
0600
0200
0400
0800
0000
0000
ENDCHAR
STARTCHAR 3c
ENCODING 60
SWIDTH 480 0
DWIDTH 8 0
BBX 13 16 -2 -2
BITMAP
0000
0000
0000
0020
0040
0180
0200
0400
0400
0400
0200
0100
0100
0000
0000
0000
ENDCHAR
STARTCHAR 3d
ENCODING 61
SWIDTH 480 0
DWIDTH 8 0
BBX 13 16 -2 -2
BITMAP
0000
0000
0000
0000
0000
0FE0
0000
0000
0000
3F80
0000
0000
0000
0000
0000
0000
ENDCHAR
STARTCHAR 3e
ENCODING 62
SWIDTH 480 0
DWIDTH 8 0
BBX 13 16 -2 -2
BITMAP
0000
0000
0000
0400
0200
0100
0100
0080
0100
0200
0400
1800
2000
0000
0000
0000
ENDCHAR
STARTCHAR 3f
ENCODING 63
SWIDTH 480 0
DWIDTH 8 0
BBX 13 16 -2 -2
BITMAP
0000
01C0
0220
0420
0820
0840
0080
0100
0200
0200
0400
0000
0000
0800
0800
0000
ENDCHAR
STARTCHAR 40
ENCODING 64
SWIDTH 480 0
DWIDTH 8 0
BBX 13 16 -2 -2
BITMAP
0000
00C0
0120
0220
05A0
0F60
14A0
14A0
15C0
1680
1000
1000
1100
0E00
0000
0000
ENDCHAR
STARTCHAR 41
ENCODING 65
SWIDTH 480 0
DWIDTH 8 0
BBX 13 16 -2 -2
BITMAP
0000
0080
0080
0180
0280
0480
0480
0880
1300
1D80
2080
2080
4100
4100
0000
0000
ENDCHAR
STARTCHAR 42
ENCODING 66
SWIDTH 480 0
DWIDTH 8 0
BBX 13 16 -2 -2
BITMAP
0000
0780
0440
0840
0840
0880
1080
1F00
1080
2080
2080
2100
4200
7C00
0000
0000
ENDCHAR
STARTCHAR 43
ENCODING 67
SWIDTH 480 0
DWIDTH 8 0
BBX 13 16 -2 -2
BITMAP
0000
01C0
0220
0420
0800
0800
1000
1000
1000
2000
2000
2180
2200
1C00
0000
0000
ENDCHAR
STARTCHAR 44
ENCODING 68
SWIDTH 480 0
DWIDTH 8 0
BBX 13 16 -2 -2
BITMAP
0000
0780
0440
0840
0840
0840
1040
1040
1080
2080
2100
2200
4400
7800
0000
0000
ENDCHAR
STARTCHAR 45
ENCODING 69
SWIDTH 480 0
DWIDTH 8 0
BBX 13 16 -2 -2
BITMAP
0000
07F0
0400
0800
0800
0800
1000
1F80
1000
2000
2000
2000
4000
7F00
0000
0000
ENDCHAR
STARTCHAR 46
ENCODING 70
SWIDTH 480 0
DWIDTH 8 0
BBX 13 16 -2 -2
BITMAP
0000
07F0
0400
0800
0800
0800
1000
1F80
1000
2000
2000
2000
4000
4000
0000
0000
ENDCHAR
STARTCHAR 47
ENCODING 71
SWIDTH 480 0
DWIDTH 8 0
BBX 13 16 -2 -2
BITMAP
0000
00C0
0120
0220
0400
0800
1000
11C0
1040
2080
2080
2080
3300
0D00
0000
0000
ENDCHAR
STARTCHAR 48
ENCODING 72
SWIDTH 480 0
DWIDTH 8 0
BBX 13 16 -2 -2
BITMAP
0000
0410
0410
0820
0820
0820
1040
1FC0
1040
2080
2080
2080
4100
4100
0000
0000
ENDCHAR
STARTCHAR 49
ENCODING 73
SWIDTH 480 0
DWIDTH 8 0
BBX 13 16 -2 -2
BITMAP
0000
01C0
0080
0100
0100
0100
0200
0200
0200
0400
0400
0400
0800
1C00
0000
0000
ENDCHAR
STARTCHAR 4a
ENCODING 74
SWIDTH 480 0
DWIDTH 8 0
BBX 13 16 -2 -2
BITMAP
0000
0010
0010
0020
0020
0020
0040
0040
0040
0080
0080
1100
1200
0C00
0000
0000
ENDCHAR
STARTCHAR 4b
ENCODING 75
SWIDTH 480 0
DWIDTH 8 0
BBX 13 16 -2 -2
BITMAP
0000
0210
0220
0420
0440
0480
0B00
0D00
0D00
1100
1080
1080
2080
2080
0000
0000
ENDCHAR
STARTCHAR 4c
ENCODING 76
SWIDTH 480 0
DWIDTH 8 0
BBX 13 16 -2 -2
BITMAP
0000
0200
0200
0400
0400
0400
0800
0800
0800
1000
1000
1000
2000
3F00
0000
0000
ENDCHAR
STARTCHAR 4d
ENCODING 77
SWIDTH 480 0
DWIDTH 8 0
BBX 13 16 -2 -2
BITMAP
0000
0410
0410
0C60
0C60
0C60
14C0
1540
1640
2280
2480
2480
4900
4100
0000
0000
ENDCHAR
STARTCHAR 4e
ENCODING 78
SWIDTH 480 0
DWIDTH 8 0
BBX 13 16 -2 -2
BITMAP
0000
0410
0610
0C20
0A20
0A20
1240
1240
1240
2280
2280
2380
4300
4100
0000
0000
ENDCHAR
STARTCHAR 4f
ENCODING 79
SWIDTH 480 0
DWIDTH 8 0
BBX 13 16 -2 -2
BITMAP
0000
0180
0240
0440
0820
0820
1040
1040
1040
2080
2080
2100
2200
1C00
0000
0000
ENDCHAR
STARTCHAR 50
ENCODING 80
SWIDTH 480 0
DWIDTH 8 0
BBX 13 16 -2 -2
BITMAP
0000
07C0
0420
0820
0820
0840
1080
1F00
1000
2000
2000
2000
4000
4000
0000
0000
ENDCHAR
STARTCHAR 51
ENCODING 81
SWIDTH 480 0
DWIDTH 8 0
BBX 13 16 -2 -2
BITMAP
0000
0180
0240
0440
0820
0820
1040
1040
1040
2080
2E80
3200
1200
0C00
0400
0200
ENDCHAR
STARTCHAR 52
ENCODING 82
SWIDTH 480 0
DWIDTH 8 0
BBX 13 16 -2 -2
BITMAP
0000
07C0
0420
0820
0820
0840
1080
1F00
1100
2100
2100
2100
4100
4100
0000
0000
ENDCHAR
STARTCHAR 53
ENCODING 83
SWIDTH 480 0
DWIDTH 8 0
BBX 13 16 -2 -2
BITMAP
0000
01C0
0220
0420
0820
0800
0400
0300
0080
0080
2080
2100
2200
1C00
0000
0000
ENDCHAR
STARTCHAR 54
ENCODING 84
SWIDTH 480 0
DWIDTH 8 0
BBX 13 16 -2 -2
BITMAP
0000
07F0
0080
0100
0100
0100
0200
0200
0200
0400
0400
0400
0800
0800
0000
0000
ENDCHAR
STARTCHAR 55
ENCODING 85
SWIDTH 480 0
DWIDTH 8 0
BBX 13 16 -2 -2
BITMAP
0000
0410
0410
0820
0820
0820
1040
1040
1040
2080
2080
2100
2200
1C00
0000
0000
ENDCHAR
STARTCHAR 56
ENCODING 86
SWIDTH 480 0
DWIDTH 8 0
BBX 13 16 -2 -2
BITMAP
0000
0410
0410
0820
0820
0840
0880
0880
0900
0A00
0A00
0C00
0800
0800
0000
0000
ENDCHAR
STARTCHAR 57
ENCODING 87
SWIDTH 480 0
DWIDTH 8 0
BBX 13 16 -2 -2
BITMAP
0000
0490
0490
0920
0920
0920
1240
1540
1580
1A80
1100
1100
2200
2200
0000
0000
ENDCHAR
STARTCHAR 58
ENCODING 88
SWIDTH 480 0
DWIDTH 8 0
BBX 13 16 -2 -2
BITMAP
0000
0410
0420
0440
0280
0300
0200
0500
0900
0900
1100
2100
2100
4100
0000
0000
ENDCHAR
STARTCHAR 59
ENCODING 89
SWIDTH 480 0
DWIDTH 8 0
BBX 13 16 -2 -2
BITMAP
0000
0410
0420
0420
0440
0480
0480
0500
0600
0400
0400
0400
0800
0800
0000
0000
ENDCHAR
STARTCHAR 5a
ENCODING 90
SWIDTH 480 0
DWIDTH 8 0
BBX 13 16 -2 -2
BITMAP
0000
07F0
0040
0040
0080
0100
0100
0200
0400
0800
1000
2000
4000
7F00
0000
0000
ENDCHAR
STARTCHAR 5b
ENCODING 91
SWIDTH 480 0
DWIDTH 8 0
BBX 13 16 -2 -2
BITMAP
00F0
0080
0080
0100
0100
0100
0200
0200
0200
0400
0400
0400
0800
0800
0800
1E00
ENDCHAR
STARTCHAR 5c
ENCODING 92
SWIDTH 480 0
DWIDTH 8 0
BBX 13 16 -2 -2
BITMAP
0410
0410
0420
0440
0440
0480
0500
1FC0
0200
3F80
0400
0400
0800
0800
0000
0000
ENDCHAR
STARTCHAR 5d
ENCODING 93
SWIDTH 480 0
DWIDTH 8 0
BBX 13 16 -2 -2
BITMAP
0780
0080
0080
0100
0100
0100
0200
0200
0200
0400
0400
0400
0800
0800
0800
F000
ENDCHAR
STARTCHAR 5e
ENCODING 94
SWIDTH 480 0
DWIDTH 8 0
BBX 13 16 -2 -2
BITMAP
0080
0140
0620
0820
0000
0000
0000
0000
0000
0000
0000
0000
0000
0000
0000
0000
ENDCHAR
STARTCHAR 5f
ENCODING 95
SWIDTH 480 0
DWIDTH 8 0
BBX 13 16 -2 -2
BITMAP
0000
0000
0000
0000
0000
0000
0000
0000
0000
0000
0000
0000
0000
0000
7F00
0000
ENDCHAR
STARTCHAR 60
ENCODING 96
SWIDTH 480 0
DWIDTH 8 0
BBX 13 16 -2 -2
BITMAP
0180
0100
0100
0100
0000
0000
0000
0000
0000
0000
0000
0000
0000
0000
0000
0000
ENDCHAR
STARTCHAR 61
ENCODING 97
SWIDTH 480 0
DWIDTH 8 0
BBX 13 16 -2 -2
BITMAP
0000
0000
0000
0000
0000
0780
0840
0040
0FC0
1080
2080
2080
2300
1D00
0000
0000
ENDCHAR
STARTCHAR 62
ENCODING 98
SWIDTH 480 0
DWIDTH 8 0
BBX 13 16 -2 -2
BITMAP
0000
0400
0400
0800
0800
0F00
1880
1040
1040
2080
2080
2100
6200
5C00
0000
0000
ENDCHAR
STARTCHAR 63
ENCODING 99
SWIDTH 480 0
DWIDTH 8 0
BBX 13 16 -2 -2
BITMAP
0000
0000
0000
0000
0000
0700
0880
1040
1000
2000
2000
2180
2200
1C00
0000
0000
ENDCHAR
STARTCHAR 64
ENCODING 100
SWIDTH 480 0
DWIDTH 8 0
BBX 13 16 -2 -2
BITMAP
0000
0010
0010
0020
0020
0720
08C0
1040
1040
2080
2080
2080
2300
1D00
0000
0000
ENDCHAR
STARTCHAR 65
ENCODING 101
SWIDTH 480 0
DWIDTH 8 0
BBX 13 16 -2 -2
BITMAP
0000
0000
0000
0000
0000
0700
0880
1040
1040
3F80
2000
2180
2200
1C00
0000
0000
ENDCHAR
STARTCHAR 66
ENCODING 102
SWIDTH 480 0
DWIDTH 8 0
BBX 13 16 -2 -2
BITMAP
0000
0060
0080
0100
0100
07C0
0200
0200
0200
0400
0400
0400
0800
0800
0000
0000
ENDCHAR
STARTCHAR 67
ENCODING 103
SWIDTH 480 0
DWIDTH 8 0
BBX 13 16 -2 -2
BITMAP
0000
0000
0000
0000
0000
0370
0480
0880
0900
0E00
1000
1C00
2200
4100
4200
3C00
ENDCHAR
STARTCHAR 68
ENCODING 104
SWIDTH 480 0
DWIDTH 8 0
BBX 13 16 -2 -2
BITMAP
0000
0200
0200
0400
0400
0780
0C40
0840
0840
1080
1080
1080
2100
2100
0000
0000
ENDCHAR
STARTCHAR 69
ENCODING 105
SWIDTH 480 0
DWIDTH 8 0
BBX 13 16 -2 -2
BITMAP
0000
0080
0080
0000
0000
0300
0200
0200
0200
0400
0400
0400
0800
0800
0000
0000
ENDCHAR
STARTCHAR 6a
ENCODING 106
SWIDTH 480 0
DWIDTH 8 0
BBX 13 16 -2 -2
BITMAP
0000
0040
0040
0000
0000
0180
0100
0100
0100
0200
0200
0200
0400
0400
1800
6000
ENDCHAR
STARTCHAR 6b
ENCODING 107
SWIDTH 480 0
DWIDTH 8 0
BBX 13 16 -2 -2
BITMAP
0000
0200
0200
0400
0400
0460
0880
0900
0E00
1A00
1100
1100
2100
2100
0000
0000
ENDCHAR
STARTCHAR 6c
ENCODING 108
SWIDTH 480 0
DWIDTH 8 0
BBX 13 16 -2 -2
BITMAP
0000
0180
0080
0100
0100
0100
0200
0200
0200
0400
0400
0400
0800
0800
0000
0000
ENDCHAR
STARTCHAR 6d
ENCODING 109
SWIDTH 480 0
DWIDTH 8 0
BBX 13 16 -2 -2
BITMAP
0000
0000
0000
0000
0000
0DC0
1240
1240
1240
2480
2480
2480
4900
4900
0000
0000
ENDCHAR
STARTCHAR 6e
ENCODING 110
SWIDTH 480 0
DWIDTH 8 0
BBX 13 16 -2 -2
BITMAP
0000
0000
0000
0000
0000
0780
0C40
0840
0840
1080
1080
1080
2100
2100
0000
0000
ENDCHAR
STARTCHAR 6f
ENCODING 111
SWIDTH 480 0
DWIDTH 8 0
BBX 13 16 -2 -2
BITMAP
0000
0000
0000
0000
0000
0700
0880
1040
1040
2080
2080
2100
2200
1C00
0000
0000
ENDCHAR
STARTCHAR 70
ENCODING 112
SWIDTH 480 0
DWIDTH 8 0
BBX 13 16 -2 -2
BITMAP
0000
0000
0000
0000
0000
0F00
1880
1040
1040
2080
2080
3300
4C00
4000
4000
8000
ENDCHAR
STARTCHAR 71
ENCODING 113
SWIDTH 480 0
DWIDTH 8 0
BBX 13 16 -2 -2
BITMAP
0000
0000
0000
0000
0000
0720
08C0
1040
1040
2080
2080
1380
0D00
0100
0100
0200
ENDCHAR
STARTCHAR 72
ENCODING 114
SWIDTH 480 0
DWIDTH 8 0
BBX 13 16 -2 -2
BITMAP
0000
0000
0000
0000
0000
03C0
0600
0400
0400
0800
0800
0800
1000
1000
0000
0000
ENDCHAR
STARTCHAR 73
ENCODING 115
SWIDTH 480 0
DWIDTH 8 0
BBX 13 16 -2 -2
BITMAP
0000
0000
0000
0000
0000
0380
0440
0800
0C00
0200
0180
0080
2100
1E00
0000
0000
ENDCHAR
STARTCHAR 74
ENCODING 116
SWIDTH 480 0
DWIDTH 8 0
BBX 13 16 -2 -2
BITMAP
0000
0000
0080
0100
0100
07C0
0200
0200
0200
0400
0400
0400
0400
0200
0000
0000
ENDCHAR
STARTCHAR 75
ENCODING 117
SWIDTH 480 0
DWIDTH 8 0
BBX 13 16 -2 -2
BITMAP
0000
0000
0000
0000
0000
0420
0840
0840
0840
1080
1080
1080
1300
0D00
0000
0000
ENDCHAR
STARTCHAR 76
ENCODING 118
SWIDTH 480 0
DWIDTH 8 0
BBX 13 16 -2 -2
BITMAP
0000
0000
0000
0000
0000
0820
1040
1040
1080
1100
0A00
0C00
0400
0800
0000
0000
ENDCHAR
STARTCHAR 77
ENCODING 119
SWIDTH 480 0
DWIDTH 8 0
BBX 13 16 -2 -2
BITMAP
0000
0000
0000
0000
0000
0920
1240
1240
1240
2680
2A80
3100
2200
2200
0000
0000
ENDCHAR
STARTCHAR 78
ENCODING 120
SWIDTH 480 0
DWIDTH 8 0
BBX 13 16 -2 -2
BITMAP
0000
0000
0000
0000
0000
0860
0880
0500
0600
0400
0A00
1200
2200
4100
0000
0000
ENDCHAR
STARTCHAR 79
ENCODING 121
SWIDTH 480 0
DWIDTH 8 0
BBX 13 16 -2 -2
BITMAP
0000
0000
0000
0000
0000
0840
0840
0880
0900
0900
0A00
0E00
0800
0800
3000
C000
ENDCHAR
STARTCHAR 7a
ENCODING 122
SWIDTH 480 0
DWIDTH 8 0
BBX 13 16 -2 -2
BITMAP
0000
0000
0000
0000
0000
07E0
0080
0100
0200
0200
0400
1800
2000
7F00
0000
0000
ENDCHAR
STARTCHAR 7b
ENCODING 123
SWIDTH 480 0
DWIDTH 8 0
BBX 13 16 -2 -2
BITMAP
0020
0040
0040
0080
0080
0080
0100
0200
0200
0200
0200
0200
0400
0400
0400
0400
ENDCHAR
STARTCHAR 7c
ENCODING 124
SWIDTH 480 0
DWIDTH 8 0
BBX 13 16 -2 -2
BITMAP
0080
0080
0080
0100
0100
0100
0200
0200
0200
0400
0400
0400
0800
0800
0800
1000
ENDCHAR
STARTCHAR 7d
ENCODING 125
SWIDTH 480 0
DWIDTH 8 0
BBX 13 16 -2 -2
BITMAP
0200
0100
0100
0200
0200
0200
0200
0200
0400
0800
0800
0800
1000
1000
2000
4000
ENDCHAR
STARTCHAR 7e
ENCODING 126
SWIDTH 480 0
DWIDTH 8 0
BBX 13 16 -2 -2
BITMAP
07F8
0000
0000
0000
0000
0000
0000
0000
0000
0000
0000
0000
0000
0000
0000
0000
ENDCHAR
STARTCHAR   a1
ENCODING 161
SWIDTH 480 0
DWIDTH 8 0
BBX 13 16 -2 -2
BITMAP
0000
0000
0000
0000
0000
0000
0000
0000
0000
0000
0000
0800
1800
2800
1000
0000
ENDCHAR
STARTCHAR   a2
ENCODING 162
SWIDTH 480 0
DWIDTH 8 0
BBX 13 16 -2 -2
BITMAP
0000
01F0
0100
0200
0200
0200
0400
0400
0400
0800
0000
0000
0000
0000
0000
0000
ENDCHAR
STARTCHAR   a3
ENCODING 163
SWIDTH 480 0
DWIDTH 8 0
BBX 13 16 -2 -2
BITMAP
0000
0000
0000
0000
0000
0000
0200
0200
0200
0400
0400
0400
0800
0800
7800
0000
ENDCHAR
STARTCHAR   a4
ENCODING 164
SWIDTH 480 0
DWIDTH 8 0
BBX 13 16 -2 -2
BITMAP
0000
0000
0000
0000
0000
0000
0000
0000
0000
0000
0000
0000
1000
0800
0800
0000
ENDCHAR
STARTCHAR   a5
ENCODING 165
SWIDTH 480 0
DWIDTH 8 0
BBX 13 16 -2 -2
BITMAP
0000
0000
0000
0000
0000
0000
0000
0300
0300
0000
0000
0000
0000
0000
0000
0000
ENDCHAR
STARTCHAR   a6
ENCODING 166
SWIDTH 480 0
DWIDTH 8 0
BBX 13 16 -2 -2
BITMAP
0000
0000
03F0
0020
0020
0020
0FC0
0080
0100
0100
0200
0C00
1000
2000
0000
0000
ENDCHAR
STARTCHAR   a7
ENCODING 167
SWIDTH 480 0
DWIDTH 8 0
BBX 13 16 -2 -2
BITMAP
0000
0000
0000
0000
0000
0000
0000
1F80
0500
0A00
0C00
1000
1000
2000
4000
0000
ENDCHAR
STARTCHAR   a8
ENCODING 168
SWIDTH 480 0
DWIDTH 8 0
BBX 13 16 -2 -2
BITMAP
0000
0000
0000
0000
0000
0000
0100
0100
0200
0C00
1400
2400
0800
0800
0800
0000
ENDCHAR
STARTCHAR   a9
ENCODING 169
SWIDTH 480 0
DWIDTH 8 0
BBX 13 16 -2 -2
BITMAP
0000
0000
0000
0000
0000
0000
0400
0400
1F80
2100
2100
2200
0400
0800
1000
0000
ENDCHAR
STARTCHAR   aa
ENCODING 170
SWIDTH 480 0
DWIDTH 8 0
BBX 13 16 -2 -2
BITMAP
0000
0000
0000
0000
0000
0000
0000
0000
0F80
0400
0400
0400
0800
7F00
0000
0000
ENDCHAR
STARTCHAR   ab
ENCODING 171
SWIDTH 480 0
DWIDTH 8 0
BBX 13 16 -2 -2
BITMAP
0000
0000
0000
0000
0000
0000
0100
0100
1FC0
0200
0600
1A00
2400
4400
0C00
0000
ENDCHAR
STARTCHAR   ac
ENCODING 172
SWIDTH 480 0
DWIDTH 8 0
BBX 13 16 -2 -2
BITMAP
0000
0000
0000
0000
0000
0000
0800
0400
07C0
3900
0A00
0C00
0800
0800
0000
0000
ENDCHAR
STARTCHAR   ad
ENCODING 173
SWIDTH 480 0
DWIDTH 8 0
BBX 13 16 -2 -2
BITMAP
0000
0000
0000
0000
0000
0000
0000
0000
0F00
0200
0200
0200
7F00
0000
0000
0000
ENDCHAR
STARTCHAR   ae
ENCODING 174
SWIDTH 480 0
DWIDTH 8 0
BBX 13 16 -2 -2
BITMAP
0000
0000
0000
0000
0000
0000
0000
0F80
0080
0100
1F00
0100
0200
3E00
0000
0000
ENDCHAR
STARTCHAR   af
ENCODING 175
SWIDTH 480 0
DWIDTH 8 0
BBX 13 16 -2 -2
BITMAP
0000
0000
0000
0000
0000
0000
0480
1280
1300
1100
0200
0400
0800
1000
0000
0000
ENDCHAR
STARTCHAR   b0
ENCODING 176
SWIDTH 480 0
DWIDTH 8 0
BBX 13 16 -2 -2
BITMAP
0000
0000
0000
0000
0000
0000
0780
0000
0000
0000
0000
0000
0000
0000
0000
0000
ENDCHAR
STARTCHAR   b1
ENCODING 177
SWIDTH 480 0
DWIDTH 8 0
BBX 13 16 -2 -2
BITMAP
0000
0000
07F0
0020
0120
0140
0280
0300
0400
0400
0800
1000
2000
4000
0000
0000
ENDCHAR
STARTCHAR   b2
ENCODING 178
SWIDTH 480 0
DWIDTH 8 0
BBX 13 16 -2 -2
BITMAP
0000
0010
0020
0020
0040
0080
0300
0500
1900
2200
0200
0200
0400
0400
0000
0000
ENDCHAR
STARTCHAR   b3
ENCODING 179
SWIDTH 480 0
DWIDTH 8 0
BBX 13 16 -2 -2
BITMAP
0000
0080
0080
0100
0FE0
0820
1040
1040
1080
0080
0100
0600
0800
1000
0000
0000
ENDCHAR
STARTCHAR   b4
ENCODING 180
SWIDTH 480 0
DWIDTH 8 0
BBX 13 16 -2 -2
BITMAP
0000
0000
0000
0FE0
0100
0100
0200
0200
0200
0400
0400
0400
7F80
0000
0000
0000
ENDCHAR
STARTCHAR   b5
ENCODING 181
SWIDTH 480 0
DWIDTH 8 0
BBX 13 16 -2 -2
BITMAP
0000
0040
0040
0080
0FE0
0080
0300
0300
0500
0A00
1200
2200
0400
0C00
0000
0000
ENDCHAR
STARTCHAR   b6
ENCODING 182
SWIDTH 480 0
DWIDTH 8 0
BBX 13 16 -2 -2
BITMAP
0000
0080
0080
0100
0FE0
0120
0240
0240
0440
0480
0880
1080
2100
4600
0000
0000
ENDCHAR
STARTCHAR   b7
ENCODING 183
SWIDTH 480 0
DWIDTH 8 0
BBX 13 16 -2 -2
BITMAP
0000
0100
0100
03C0
0E00
0200
0200
03C0
1E00
0200
0200
0200
0400
0400
0000
0000
ENDCHAR
STARTCHAR   b8
ENCODING 184
SWIDTH 480 0
DWIDTH 8 0
BBX 13 16 -2 -2
BITMAP
0000
0100
0100
03E0
0220
0440
0440
0880
1100
0100
0200
0C00
1000
2000
0000
0000
ENDCHAR
STARTCHAR   b9
ENCODING 185
SWIDTH 480 0
DWIDTH 8 0
BBX 13 16 -2 -2
BITMAP
0000
0200
0200
0400
07E0
0480
0900
0900
1200
0200
0400
0800
1000
2000
0000
0000
ENDCHAR
STARTCHAR   ba
ENCODING 186
SWIDTH 480 0
DWIDTH 8 0
BBX 13 16 -2 -2
BITMAP
0000
0000
0000
0FE0
0020
0020
0040
0040
0040
0080
0080
3F80
0100
0000
0000
0000
ENDCHAR
STARTCHAR   bb
ENCODING 187
SWIDTH 480 0
DWIDTH 8 0
BBX 13 16 -2 -2
BITMAP
0000
0120
0120
0240
0240
0FE0
0480
0480
0480
0900
0100
0200
0C00
1000
0000
0000
ENDCHAR
STARTCHAR   bc
ENCODING 188
SWIDTH 480 0
DWIDTH 8 0
BBX 13 16 -2 -2
BITMAP
0000
0000
0200
0100
0000
0000
1840
0440
0080
0100
0200
0C00
1000
6000
0000
0000
ENDCHAR
STARTCHAR   bd
ENCODING 189
SWIDTH 480 0
DWIDTH 8 0
BBX 13 16 -2 -2
BITMAP
0000
0000
0000
0FE0
0040
0080
0080
0100
0100
0200
0500
1900
2100
4100
0000
0000
ENDCHAR
STARTCHAR   be
ENCODING 190
SWIDTH 480 0
DWIDTH 8 0
BBX 13 16 -2 -2
BITMAP
0000
0200
0200
0400
0400
05E0
0E40
1880
0900
1000
1000
1000
1000
0F00
0000
0000
ENDCHAR
STARTCHAR   bf
ENCODING 191
SWIDTH 480 0
DWIDTH 8 0
BBX 13 16 -2 -2
BITMAP
0000
0000
0010
0820
0420
0440
0840
0080
0100
0100
0200
0C00
1000
2000
0000
0000
ENDCHAR
STARTCHAR   c0
ENCODING 192
SWIDTH 480 0
DWIDTH 8 0
BBX 13 16 -2 -2
BITMAP
0000
0100
0100
03E0
0220
0440
0C40
0A80
1380
0200
0200
0400
1800
2000
0000
0000
ENDCHAR
STARTCHAR   c1
ENCODING 193
SWIDTH 480 0
DWIDTH 8 0
BBX 13 16 -2 -2
BITMAP
0000
0010
0060
0780
0080
0080
1FE0
0100
0100
0200
0200
0400
1800
2000
0000
0000
ENDCHAR
STARTCHAR   c2
ENCODING 194
SWIDTH 480 0
DWIDTH 8 0
BBX 13 16 -2 -2
BITMAP
0000
0000
0100
0120
0920
0940
0840
0880
0100
0100
0200
0C00
1000
2000
0000
0000
ENDCHAR
STARTCHAR   c3
ENCODING 195
SWIDTH 480 0
DWIDTH 8 0
BBX 13 16 -2 -2
BITMAP
0000
0000
03F0
0000
0000
0000
1FC0
0100
0100
0200
0200
0400
1800
2000
0000
0000
ENDCHAR
STARTCHAR   c4
ENCODING 196
SWIDTH 480 0
DWIDTH 8 0
BBX 13 16 -2 -2
BITMAP
0000
0100
0100
0200
0200
0300
0500
0480
0480
0880
0800
0800
1000
1000
0000
0000
ENDCHAR
STARTCHAR   c5
ENCODING 197
SWIDTH 480 0
DWIDTH 8 0
BBX 13 16 -2 -2
BITMAP
0000
0040
0040
0080
0FE0
0080
0100
0100
0200
0200
0400
0800
1000
2000
0000
0000
ENDCHAR
STARTCHAR   c6
ENCODING 198
SWIDTH 480 0
DWIDTH 8 0
BBX 13 16 -2 -2
BITMAP
0000
0000
0000
07C0
0000
0000
0000
0000
0000
0000
0000
3FC0
0000
0000
0000
0000
ENDCHAR
STARTCHAR   c7
ENCODING 199
SWIDTH 480 0
DWIDTH 8 0
BBX 13 16 -2 -2
BITMAP
0000
0000
03F0
0020
0020
0240
0280
0100
0180
0300
0480
1880
2000
4000
0000
0000
ENDCHAR
STARTCHAR   c8
ENCODING 200
SWIDTH 480 0
DWIDTH 8 0
BBX 13 16 -2 -2
BITMAP
0080
0080
0080
0FE0
0040
0080
0080
0300
0E80
1480
2480
0400
0800
0800
0000
0000
ENDCHAR
STARTCHAR   c9
ENCODING 201
SWIDTH 480 0
DWIDTH 8 0
BBX 13 16 -2 -2
BITMAP
0000
0010
0020
0020
0040
0080
0080
0100
0200
0400
0800
3000
4000
0000
0000
0000
ENDCHAR
STARTCHAR   ca
ENCODING 202
SWIDTH 480 0
DWIDTH 8 0
BBX 13 16 -2 -2
BITMAP
0000
0000
0040
0040
0240
0240
0440
0440
0440
0880
0880
1080
2100
4100
0000
0000
ENDCHAR
STARTCHAR   cb
ENCODING 203
SWIDTH 480 0
DWIDTH 8 0
BBX 13 16 -2 -2
BITMAP
0000
0200
0200
0400
0420
04C0
0F00
0800
0800
1000
1000
1000
1000
0F00
0000
0000
ENDCHAR
STARTCHAR   cc
ENCODING 204
SWIDTH 480 0
DWIDTH 8 0
BBX 13 16 -2 -2
BITMAP
0000
0000
07F0
0020
0020
0040
0040
0080
0100
0100
0200
0C00
1000
2000
0000
0000
ENDCHAR
STARTCHAR   cd
ENCODING 205
SWIDTH 480 0
DWIDTH 8 0
BBX 13 16 -2 -2
BITMAP
0000
0000
0100
0200
0500
0900
0900
1100
0080
0080
0040
0000
0000
0000
0000
0000
ENDCHAR
STARTCHAR   ce
ENCODING 206
SWIDTH 480 0
DWIDTH 8 0
BBX 13 16 -2 -2
BITMAP
0000
0080
0080
0100
0FE0
0100
0300
0A80
0A80
1480
1480
2480
0800
1800
0000
0000
ENDCHAR
STARTCHAR   cf
ENCODING 207
SWIDTH 480 0
DWIDTH 8 0
BBX 13 16 -2 -2
BITMAP
0000
0000
0000
0FE0
0020
0040
0040
0080
1B00
0400
0400
0200
0200
0200
0000
0000
ENDCHAR
STARTCHAR   d0
ENCODING 208
SWIDTH 480 0
DWIDTH 8 0
BBX 13 16 -2 -2
BITMAP
0000
0300
0080
0040
0000
0000
0C00
0300
0080
0000
3800
0400
0200
0100
0000
0000
ENDCHAR
STARTCHAR   d1
ENCODING 209
SWIDTH 480 0
DWIDTH 8 0
BBX 13 16 -2 -2
BITMAP
0000
0080
0080
0100
0100
0100
0200
0500
0500
0900
0880
3780
5900
0100
0000
0000
ENDCHAR
STARTCHAR   d2
ENCODING 210
SWIDTH 480 0
DWIDTH 8 0
BBX 13 16 -2 -2
BITMAP
0000
0020
0020
0040
0040
0480
0280
0100
0180
0280
0400
1800
2000
4000
0000
0000
ENDCHAR
STARTCHAR   d3
ENCODING 211
SWIDTH 480 0
DWIDTH 8 0
BBX 13 16 -2 -2
BITMAP
0000
0000
07F0
0200
0200
0200
1FC0
0400
0400
0800
0800
0800
0700
0000
0000
0000
ENDCHAR
STARTCHAR   d4
ENCODING 212
SWIDTH 480 0
DWIDTH 8 0
BBX 13 16 -2 -2
BITMAP
0000
0100
0100
0100
0170
0790
1A20
0240
0380
0200
0200
0200
0200
0200
0000
0000
ENDCHAR
STARTCHAR   d5
ENCODING 213
SWIDTH 480 0
DWIDTH 8 0
BBX 13 16 -2 -2
BITMAP
0000
0000
0000
0000
07C0
0040
0080
0080
0080
0100
0100
0100
7F80
0000
0000
0000
ENDCHAR
STARTCHAR   d6
ENCODING 214
SWIDTH 480 0
DWIDTH 8 0
BBX 13 16 -2 -2
BITMAP
0000
0000
07F0
0020
0020
0020
0040
0FC0
0040
0080
0080
0080
0100
7F00
0000
0000
ENDCHAR
STARTCHAR   d7
ENCODING 215
SWIDTH 480 0
DWIDTH 8 0
BBX 13 16 -2 -2
BITMAP
0000
0000
03E0
0000
0000
0000
1FC0
0040
0080
0080
0100
0600
0800
3000
0000
0000
ENDCHAR
STARTCHAR   d8
ENCODING 216
SWIDTH 480 0
DWIDTH 8 0
BBX 13 16 -2 -2
BITMAP
0000
0020
0220
0440
0440
0440
0880
0880
0900
0100
0200
0400
0800
1000
0000
0000
ENDCHAR
STARTCHAR   d9
ENCODING 217
SWIDTH 480 0
DWIDTH 8 0
BBX 13 16 -2 -2
BITMAP
0000
0040
0040
0280
0280
0280
0500
0520
0940
0A40
1280
1300
2400
4000
0000
0000
ENDCHAR
STARTCHAR   da
ENCODING 218
SWIDTH 480 0
DWIDTH 8 0
BBX 13 16 -2 -2
BITMAP
0000
0000
0200
0400
0400
0400
0800
0800
0840
1080
1100
1600
2800
3000
0000
0000
ENDCHAR
STARTCHAR   db
ENCODING 219
SWIDTH 480 0
DWIDTH 8 0
BBX 13 16 -2 -2
BITMAP
0000
0000
0000
0FE0
0820
0820
1040
1040
1040
2080
2080
3F80
4100
0000
0000
0000
ENDCHAR
STARTCHAR   dc
ENCODING 220
SWIDTH 480 0
DWIDTH 8 0
BBX 13 16 -2 -2
BITMAP
0000
0000
0000
0FE0
0820
0820
1040
1040
0080
0080
0100
0600
0800
1000
0000
0000
ENDCHAR
STARTCHAR   dd
ENCODING 221
SWIDTH 480 0
DWIDTH 8 0
BBX 13 16 -2 -2
BITMAP
0000
0000
0000
0C00
0200
0020
0040
0040
0080
0100
0200
0C00
1000
6000
0000
0000
ENDCHAR
STARTCHAR   de
ENCODING 222
SWIDTH 480 0
DWIDTH 8 0
BBX 13 16 -2 -2
BITMAP
0000
0480
0440
0480
0000
0000
0000
0000
0000
0000
0000
0000
0000
0000
0000
0000
ENDCHAR
STARTCHAR   df
ENCODING 223
SWIDTH 480 0
DWIDTH 8 0
BBX 13 16 -2 -2
BITMAP
0000
0200
0500
0500
0200
0000
0000
0000
0000
0000
0000
0000
0000
0000
0000
0000
ENDCHAR
STARTCHAR   e0
ENCODING 224
SWIDTH 480 0
DWIDTH 8 0
BBX 13 16 -2 -2
BITMAP
0000
0000
0000
0000
0000
0000
0000
0000
0000
0000
0000
0000
0000
0000
0000
0000
ENDCHAR
STARTCHAR   e1
ENCODING 225
SWIDTH 480 0
DWIDTH 8 0
BBX 13 16 -2 -2
BITMAP
0000
0000
0000
0000
0000
0000
0000
0000
0000
0000
0000
0000
0000
0000
0000
0000
ENDCHAR
STARTCHAR   e2
ENCODING 226
SWIDTH 480 0
DWIDTH 8 0
BBX 13 16 -2 -2
BITMAP
0000
0000
0000
0000
0000
0000
0000
0000
0000
0000
0000
0000
0000
0000
0000
0000
ENDCHAR
STARTCHAR   e3
ENCODING 227
SWIDTH 480 0
DWIDTH 8 0
BBX 13 16 -2 -2
BITMAP
0000
0000
0000
0000
0000
0000
0000
0000
0000
0000
0000
0000
0000
0000
0000
0000
ENDCHAR
STARTCHAR   e4
ENCODING 228
SWIDTH 480 0
DWIDTH 8 0
BBX 13 16 -2 -2
BITMAP
0000
0000
0000
0000
0000
0000
0000
0000
0000
0000
0000
0000
0000
0000
0000
0000
ENDCHAR
STARTCHAR   e5
ENCODING 229
SWIDTH 480 0
DWIDTH 8 0
BBX 13 16 -2 -2
BITMAP
0000
0000
0000
0000
0000
0000
0000
0000
0000
0000
0000
0000
0000
0000
0000
0000
ENDCHAR
STARTCHAR   e6
ENCODING 230
SWIDTH 480 0
DWIDTH 8 0
BBX 13 16 -2 -2
BITMAP
0000
0000
0000
0000
0000
0000
0000
0000
0000
0000
0000
0000
0000
0000
0000
0000
ENDCHAR
STARTCHAR   e7
ENCODING 231
SWIDTH 480 0
DWIDTH 8 0
BBX 13 16 -2 -2
BITMAP
0000
0000
0000
0000
0000
0000
0000
0000
0000
0000
0000
0000
0000
0000
0000
0000
ENDCHAR
STARTCHAR   e8
ENCODING 232
SWIDTH 480 0
DWIDTH 8 0
BBX 13 16 -2 -2
BITMAP
0000
0000
0000
0000
0000
0000
0000
0000
0000
0000
0000
0000
0000
0000
0000
0000
ENDCHAR
STARTCHAR   e9
ENCODING 233
SWIDTH 480 0
DWIDTH 8 0
BBX 13 16 -2 -2
BITMAP
0000
0000
0000
0000
0000
0000
0000
0000
0000
0000
0000
0000
0000
0000
0000
0000
ENDCHAR
STARTCHAR   ea
ENCODING 234
SWIDTH 480 0
DWIDTH 8 0
BBX 13 16 -2 -2
BITMAP
0000
0000
0000
0000
0000
0000
0000
0000
0000
0000
0000
0000
0000
0000
0000
0000
ENDCHAR
STARTCHAR   eb
ENCODING 235
SWIDTH 480 0
DWIDTH 8 0
BBX 13 16 -2 -2
BITMAP
0000
0000
0000
0000
0000
0000
0000
0000
0000
0000
0000
0000
0000
0000
0000
0000
ENDCHAR
STARTCHAR   ec
ENCODING 236
SWIDTH 480 0
DWIDTH 8 0
BBX 13 16 -2 -2
BITMAP
0000
0000
0000
0000
0000
0000
0000
0000
0000
0000
0000
0000
0000
0000
0000
0000
ENDCHAR
STARTCHAR   ed
ENCODING 237
SWIDTH 480 0
DWIDTH 8 0
BBX 13 16 -2 -2
BITMAP
0000
0000
0000
0000
0000
0000
0000
0000
0000
0000
0000
0000
0000
0000
0000
0000
ENDCHAR
STARTCHAR   ee
ENCODING 238
SWIDTH 480 0
DWIDTH 8 0
BBX 13 16 -2 -2
BITMAP
0000
0000
0000
0000
0000
0000
0000
0000
0000
0000
0000
0000
0000
0000
0000
0000
ENDCHAR
STARTCHAR   ef
ENCODING 239
SWIDTH 480 0
DWIDTH 8 0
BBX 13 16 -2 -2
BITMAP
0000
0000
0000
0000
0000
0000
0000
0000
0000
0000
0000
0000
0000
0000
0000
0000
ENDCHAR
STARTCHAR   f0
ENCODING 240
SWIDTH 480 0
DWIDTH 8 0
BBX 13 16 -2 -2
BITMAP
0000
0000
0000
0000
0000
0000
0000
0000
0000
0000
0000
0000
0000
0000
0000
0000
ENDCHAR
STARTCHAR   f1
ENCODING 241
SWIDTH 480 0
DWIDTH 8 0
BBX 13 16 -2 -2
BITMAP
0000
0000
0000
0000
0000
0000
0000
0000
0000
0000
0000
0000
0000
0000
0000
0000
ENDCHAR
STARTCHAR   f2
ENCODING 242
SWIDTH 480 0
DWIDTH 8 0
BBX 13 16 -2 -2
BITMAP
0000
0000
0000
0000
0000
0000
0000
0000
0000
0000
0000
0000
0000
0000
0000
0000
ENDCHAR
STARTCHAR   f3
ENCODING 243
SWIDTH 480 0
DWIDTH 8 0
BBX 13 16 -2 -2
BITMAP
0000
0000
0000
0000
0000
0000
0000
0000
0000
0000
0000
0000
0000
0000
0000
0000
ENDCHAR
STARTCHAR   f4
ENCODING 244
SWIDTH 480 0
DWIDTH 8 0
BBX 13 16 -2 -2
BITMAP
0000
0000
0000
0000
0000
0000
0000
0000
0000
0000
0000
0000
0000
0000
0000
0000
ENDCHAR
STARTCHAR   f5
ENCODING 245
SWIDTH 480 0
DWIDTH 8 0
BBX 13 16 -2 -2
BITMAP
0000
0000
0000
0000
0000
0000
0000
0000
0000
0000
0000
0000
0000
0000
0000
0000
ENDCHAR
STARTCHAR   f6
ENCODING 246
SWIDTH 480 0
DWIDTH 8 0
BBX 13 16 -2 -2
BITMAP
0000
0000
0000
0000
0000
0000
0000
0000
0000
0000
0000
0000
0000
0000
0000
0000
ENDCHAR
STARTCHAR   f7
ENCODING 247
SWIDTH 480 0
DWIDTH 8 0
BBX 13 16 -2 -2
BITMAP
0000
0000
0000
0000
0000
0000
0000
0000
0000
0000
0000
0000
0000
0000
0000
0000
ENDCHAR
STARTCHAR   f8
ENCODING 248
SWIDTH 480 0
DWIDTH 8 0
BBX 13 16 -2 -2
BITMAP
0000
0000
0000
0000
0000
0000
0000
0000
0000
0000
0000
0000
0000
0000
0000
0000
ENDCHAR
STARTCHAR   f9
ENCODING 249
SWIDTH 480 0
DWIDTH 8 0
BBX 13 16 -2 -2
BITMAP
0000
0000
0000
0000
0000
0000
0000
0000
0000
0000
0000
0000
0000
0000
0000
0000
ENDCHAR
STARTCHAR   fa
ENCODING 250
SWIDTH 480 0
DWIDTH 8 0
BBX 13 16 -2 -2
BITMAP
0000
0000
0000
0000
0000
0000
0000
0000
0000
0000
0000
0000
0000
0000
0000
0000
ENDCHAR
STARTCHAR   fb
ENCODING 251
SWIDTH 480 0
DWIDTH 8 0
BBX 13 16 -2 -2
BITMAP
0000
0000
0000
0000
0000
0000
0000
0000
0000
0000
0000
0000
0000
0000
0000
0000
ENDCHAR
STARTCHAR   fc
ENCODING 252
SWIDTH 480 0
DWIDTH 8 0
BBX 13 16 -2 -2
BITMAP
0000
0000
0000
0000
0000
0000
0000
0000
0000
0000
0000
0000
0000
0000
0000
0000
ENDCHAR
STARTCHAR   fd
ENCODING 253
SWIDTH 480 0
DWIDTH 8 0
BBX 13 16 -2 -2
BITMAP
0000
0000
0000
0000
0000
0000
0000
0000
0000
0000
0000
0000
0000
0000
0000
0000
ENDCHAR
STARTCHAR   fe
ENCODING 254
SWIDTH 480 0
DWIDTH 8 0
BBX 13 16 -2 -2
BITMAP
0000
0000
0000
0000
0000
0000
0000
0000
0000
0000
0000
0000
0000
0000
0000
0000
ENDCHAR
STARTCHAR   ff
ENCODING 255
SWIDTH 480 0
DWIDTH 8 0
BBX 13 16 -2 -2
BITMAP
0000
0000
0000
0000
0000
0000
0000
0000
0000
0000
0000
0000
0000
0000
0000
0000
ENDCHAR
ENDFONT
